<?xml version="1.0" encoding="UTF-8"?>
<svg xmlns="http://www.w3.org/2000/svg" id="Layer_1" data-name="Layer 1" viewBox="0 0 24 24">
  <path d="M22.5,10.092V5c0-.829-.671-1.5-1.5-1.5s-1.5,.671-1.5,1.5v4.22c-.449-.085-.955-.172-1.5-.255V4c0-.552-.448-1-1-1s-1,.448-1,1v4.707c-.482-.051-.983-.094-1.5-.13V3c0-.829-.671-1.5-1.5-1.5s-1.5,.671-1.5,1.5v5.495c-.685,.01-1.354,.039-2,.083V4c0-.829-.671-1.5-1.5-1.5s-1.5,.671-1.5,1.5v4.892c-.741,.105-1.416,.219-2,.329V5c0-.829-.671-1.5-1.5-1.5s-1.5,.671-1.5,1.5v5.092c-.408,.368-.601,.943-.446,1.508,.184,.665,.868,1.277,1.844,1.048,.043-.01,4.276-1.161,9.102-1.161s9.059,1.148,9.101,1.16c.797,.219,1.625-.249,1.845-1.046,.156-.566-.038-1.141-.445-1.51Z"/>
  <path d="M3,14.5c-.829,0-1.5,.671-1.5,1.5v3c0,.829,.671,1.5,1.5,1.5s1.5-.671,1.5-1.5v-3c0-.829-.671-1.5-1.5-1.5Z"/>
  <path d="M8,13.5c-.829,0-1.5,.671-1.5,1.5v5c0,.829,.671,1.5,1.5,1.5s1.5-.671,1.5-1.5v-5c0-.829-.671-1.5-1.5-1.5Z"/>
  <path d="M21,15.5c-.829,0-1.5,.671-1.5,1.5v3c0,.829,.671,1.5,1.5,1.5s1.5-.671,1.5-1.5v-3c0-.829-.671-1.5-1.5-1.5Z"/>
  <path d="M17,14c-.552,0-1,.448-1,1v5c0,.552,.448,1,1,1s1-.448,1-1v-5c0-.552-.448-1-1-1Z"/>
  <path d="M13,13.5c-.829,0-1.5,.671-1.5,1.5v6c0,.829,.671,1.5,1.5,1.5s1.5-.671,1.5-1.5v-6c0-.829-.671-1.5-1.5-1.5Z"/>
</svg>
