<?xml version="1.0" encoding="UTF-8"?>
<svg xmlns="http://www.w3.org/2000/svg" id="Layer_1" data-name="Layer 1" viewBox="0 0 24 24">
  <path d="M12.132,15.846l-.133-.08-.132,.081c-.605,.368-1.128,.875-1.563,1.515,.466,.082,1.03,.139,1.696,.139,.693,0,1.252-.055,1.698-.135-.436-.642-.96-1.15-1.566-1.519Z"/>
  <path d="M16.187,12c1.519-1.258,3.146-3.338,3.988-6.732,.052-.209,.035-.429-.048-.628-.062-.148-1.602-3.64-8.126-3.64S3.936,4.492,3.874,4.64c-.083,.199-.1,.419-.048,.628,.843,3.394,2.469,5.474,3.988,6.732-1.519,1.258-3.146,3.338-3.988,6.732-.052,.209-.035,.429,.048,.628,.062,.148,1.602,3.64,8.126,3.64s8.064-3.492,8.126-3.64c.083-.199,.1-.419,.048-.628-.843-3.394-2.469-5.474-3.988-6.732Zm-.612,6.892c-.938,.394-2.137,.608-3.574,.608-1.661,0-2.851-.276-3.536-.564-.802-.338-.679-1.096-.565-1.349,.687-1.526,1.709-2.631,2.929-3.451,1.102-.74,1.286-.661,2.341,0,1.24,.776,2.231,1.912,2.918,3.425,.111,.244,.223,1.021-.514,1.331Z"/>
</svg>
